<svg xmlns="http://www.w3.org/2000/svg" xmlns:xlink="http://www.w3.org/1999/xlink" width="300" height="300" viewBox="-324.03992598074484 -336.33877397842406 438.27223082615814 350.5710788238373" preserveAspectRatio="xMinYMin meet"><g transform="matrix(1,0,0,-1,0,-322.1064691330108)"><path fill-rule="evenodd" fill="#66cc99" stroke="#555555" stroke-width="2.9218148721743877" opacity="0.6" d="M -306.8076211353316,-234.60254037844385 L -306.90563827566115,-234.59772510511604 L -307.00271145734774,-234.5833256588471 L -307.0979058125861,-234.55948071417606 L -307.19030456769667,-234.52641991095513 L -307.2790178721576,-234.4844616427922 L -307.3631913683512,-234.4340099907464 L -307.44201441949525,-234.37555083180658 L -307.51472791651815,-234.3096471596304 L -307.58063158869436,-234.2369336626075 L -307.63909074763416,-234.15811061146346 L -307.68954239967997,-234.07393711526984 L -307.7315006678429,-233.98522381080895 L -307.7645614710638,-233.89282505569832 L -307.7884064157348,-233.79763070046 L -307.8028058620038,-233.70055751877342 L -307.8076211353316,-233.60254037844385 L -307.8076211353316,-138.33459118601272 L -307.8030930579047,-138.23953514270852 L -307.78954983259433,-138.1453399416523 L -307.7671141089461,-138.05285862917128 L -307.7359890683477,-137.9629287303524 L -307.6964565839865,-137.8763646642853 L -307.64887466816276,-137.79395036855712 L -307.5936742300744,-137.7164321997921 L -307.5313551734367,-137.6445121745306 L -307.46248186927687,-137.57884161165845 L -307.38767804490277,-137.52001523396237 L -307.3076211353316,-137.46856578222827 L -222.20508075688775,-88.33459118601273 L -137.1025403784439,-39.20061658979716 L -137.01795539144578,-39.15700999822708 L -136.92960834176134,-39.12164117486693 L -136.83829931395334,-39.09483042525805 L -136.74485521671718,-39.07682055170066 L -136.65012229426765,-39.06777465439859 L -136.55495846262016,-39.06777465439859 L -136.46022554017063,-39.07682055170066 L -136.36678144293447,-39.09483042525805 L -136.27547241512647,-39.12164117486693 L -136.18712536544203,-39.15700999822708 L -136.1025403784439,-39.20061658979716 L -51.88728513415881,-87.8223168749582 L -51.60364876997644,-87.96800795086504 L -51.329956144833304,-88.07616336875085 L -51.046980339715944,-88.15697142029177 L -50.75744656631744,-88.20965387977743 L -50.464143193151486,-88.23370338632371 L -50.16989489203708,-88.22888833003583 L -49.87753543496666,-88.195255082538 L -49.589880403331826,-88.13312755038945 L -49.30970007233524,-88.04310405568707 L -49.039692731726774,-87.92605157389679 L -48.78245869979742,-87.78309738440558 L -48.54047528089299,-87.61561821420493 L -48.31607290761925,-87.42522697925733 L -48.111412697501706,-87.21375725123387 L -47.92846564024221,-86.98324559921627 L -47.755674881376734,-86.71525524428522 L 0.8660254037844286,-2.5000000000000155 L 0.9174748555185316,-2.4199430904288173 L 0.976301233214609,-2.3451392660547308 L 1.0419717960867552,-2.2762659618949455 L 1.113891821348262,-2.2139469052572283 L 1.1914099901132698,-2.1587464671688346 L 1.273824285841457,-2.1111645513450923 L 1.3603883519085398,-2.071632066983943 L 1.4503182507274375,-2.0405070263855185 L 1.542799563208457,-2.018071302737309 L 1.6369947642646847,-2.004528077426931 L 1.7320508075688672,-2.000000000000016 L 97.00000000000001,-2.000000000000028 L 97.09801714032957,-2.0048152733278313 L 97.19509032201614,-2.0192147195967975 L 97.29028467725448,-2.043059664267819 L 97.3826834323651,-2.0761204674887415 L 97.47139673682601,-2.118078735651673 L 97.55557023301962,-2.1685303876974826 L 97.63439328416366,-2.226989546637291 L 97.70710678118657,-2.2928932188134805 L 97.77301045336276,-2.3656067158363827 L 97.83146961230256,-2.444429766980426 L 97.88192126434836,-2.52860326317403 L 97.92387953251131,-2.6173165676349384 L 97.95694033573223,-2.7097153227455655 L 97.98078528040324,-2.8049096779838996 L 97.9951847266722,-2.901982859670467 L 98.00000000000001,-3.000000000000028 L 98.00000000000001,-98.26794919243115 L 97.9954719225731,-98.36300523573533 L 97.98192869726272,-98.45720043679155 L 97.95949297361452,-98.54968174927258 L 97.92836793301609,-98.63961164809147 L 97.88883544865494,-98.72617571415856 L 97.84125353283119,-98.80859000988674 L 97.7860530947428,-98.88610817865175 L 97.72373403810508,-98.95802820391326 L 97.6548607339453,-99.0236987667854 L 97.58005690957121,-99.08252514448148 L 97.50000000000001,-99.13397459621558 L 13.28474475571483,-147.75567488137668 L 13.016754400783713,-147.92846564024222 L 12.78624274876613,-148.1114126975017 L 12.574773020742606,-148.31607290761931 L 12.384381785795014,-148.54047528089305 L 12.216902615594428,-148.78245869979736 L 12.073948426103177,-149.0396927317268 L 11.956895944312912,-149.30970007233523 L 11.866872449610534,-149.58988040333182 L 11.804744917461978,-149.87753543496663 L 11.771111669964146,-150.16989489203706 L 11.766296613676264,-150.46414319315141 L 11.790346120222555,-150.75744656631753 L 11.843028579708188,-151.04698033971587 L 11.923836631249134,-151.32995614483335 L 12.031992049134924,-151.60364876997642 L 12.17768312504172,-151.8872851341587 L 60.7993834102028,-236.1025403784439 L 60.842990001772876,-236.18712536544203 L 60.87835882513303,-236.27547241512647 L 60.905169574741905,-236.36678144293447 L 60.923179448299294,-236.46022554017063 L 60.93222534560137,-236.55495846262016 L 60.93222534560137,-236.65012229426765 L 60.923179448299294,-236.74485521671718 L 60.905169574741905,-236.83829931395334 L 60.87835882513303,-236.92960834176134 L 60.842990001772876,-237.01795539144578 L 60.7993834102028,-237.1025403784439 L 13.165408813987234,-319.60700454553444 L 13.11223009479441,-319.6894822424022 L 13.051223217681772,-319.76635036063453 L 12.982975712225665,-319.8368686182323 L 12.908144839211515,-319.90035788582566 L 12.827451260853161,-319.95620672706104 L 12.741672100421793,-320.00387728706716 L 12.651633458124024,-320.04291047229174 L 12.558202455305311,-320.07293037182353 L 12.462278883597378,-320.09364787761933 L 12.364786539432933,-320.10486346877303 L 12.266664327381013,-320.1064691330108 L 12.168857217982737,-320.09844940690823 L 12.072307147168415,-320.0808815248118 L 11.977943944899625,-320.05393467502955 L 11.886676380398391,-320.01786837045563 L 11.799383410202795,-319.97302994931886 L -71.68446550791312,-271.7736073034585 L -71.95930677573894,-271.6319167820312 L -72.2242477440801,-271.52585041825796 L -72.4980712880705,-271.44544857135213 L -72.77829761929485,-271.39143937288935 L -73.06238896470104,-271.3643119385349 L -73.3477725490744,-271.3643119385349 L -73.6318638944806,-271.39143937288935 L -73.91209022570494,-271.44544857135213 L -74.18591376969535,-271.52585041825796 L -74.45085473803651,-271.6319167820312 L -74.72569600586233,-271.7736073034585 L -158.20954492397829,-319.9730299493188 L -158.29683789417388,-320.0178683704556 L -158.3881054586751,-320.0539346750295 L -158.4824686609439,-320.08088152481173 L -158.57901873175823,-320.0984494069082 L -158.6768258411565,-320.10646913301076 L -158.77494805320842,-320.104863468773 L -158.87244039737288,-320.0936478776193 L -158.9683639690808,-320.0729303718235 L -159.06179497189953,-320.0429104722917 L -159.15183361419727,-320.00387728706704 L -159.23761277462864,-319.95620672706093 L -159.318306352987,-319.9003578858256 L -159.39313722600116,-319.8368686182322 L -159.46138473145726,-319.7663503606344 L -159.5223916085699,-319.68948224240216 L -159.57557032776273,-319.6070045455344 L -207.77499297362323,-236.1231556274181 L -207.94216723285476,-235.86302740247416 L -208.11857966005496,-235.6387007527887 L -208.31551688185218,-235.4321589388617 L -208.5311954042699,-235.2452724353431 L -208.76366200920998,-235.07973371534945 L -209.01081144310027,-234.9370419231628 L -209.27040548239498,-234.81848929774998 L -209.5400932032755,-234.72514947004476 L -209.81743227197865,-234.65786773998113 L -210.09991106295203,-234.61725342132524 L -210.40877584361056,-234.60254037844385 L -306.8076211353316,-234.60254037844385 z" /></g></svg>