<svg xmlns="http://www.w3.org/2000/svg" xmlns:xlink="http://www.w3.org/1999/xlink" width="300" height="300" viewBox="-324.3708958077931 -355.4120257840403 438.9341704802546 418.1835655387" preserveAspectRatio="xMinYMin meet"><g transform="matrix(1,0,0,-1,0,-292.64048602938055)"><path fill-rule="evenodd" fill="#66cc99" stroke="#555555" stroke-width="2.926227803201697" opacity="0.6" d="M -306.97108930415607,-137.99284030470318 L -307.256237098986,-137.6119274453122 L -307.5038856532654,-137.205634367708 L -307.71179222333745,-136.77764052491744 L -307.8780739751084,-136.33182189545727 L -308.0012250352849,-135.87221588187262 L -308.0801301287956,-135.40298474739427 L -308.1140746788948,-134.92837792183826 L -308.1027512784804,-134.45269351811157 L -308.04626247402007,-133.98023940783585 L -307.9451198368745,-133.51529420859512 L -292.09333939043574,-74.35564419205885 L -291.943239892777,-73.88848917796528 L -291.7480739666538,-73.43829596647645 L -291.5097211666233,-73.00940016431962 L -291.23047696044654,-72.60593227252785 L -290.9130306224796,-72.2317779074571 L -290.56043933449075,-71.89054038017657 L -290.1760987433294,-71.58550599461338 L -289.7637102589904,-71.31961239864927 L -289.32724540801235,-71.09542029296557 L -288.8709075855062,-70.91508877009593 L -288.39909157416224,-70.78035452118479 L -287.91634122009066,-70.6925151107024 L -287.4273056730993,-70.65241648018963 L -286.9366946128397,-70.66044480137843 L -286.44923289201745,-70.71652275714706 L -285.9696150334778,-70.82011028612611 L -223.4638998019903,-87.56846620473291 L -160.110819484688,-104.54387291377813 L -159.41573505713632,-104.69399676133696 L -158.83136886926437,-104.76122267844258 L -158.24322727215997,-104.77084698174214 L -157.6569743909139,-104.72277698393367 L -157.07825616125092,-104.6174756253738 L -156.5126459560826,-104.45595701570907 L -155.96559091087855,-104.23977666744561 L -155.44235946477448,-103.97101651551324 L -154.94799062262436,-103.65226486709463 L -154.48724542662703,-103.28659147481106 L -154.06456110488926,-102.87751797332791 L -153.6840083384921,-102.4289839640868 L -153.349252058607,-101.94530907478998 L -153.0635161512058,-101.4311513590252 L -152.82955240927606,-100.89146243666276 L -152.61202126120008,-100.21443974084879 L -136.53319002432286,-40.20742463849759 L -136.38830951787634,-39.7541989660147 L -136.20100320243054,-39.316797302163394 L -135.97296735298326,-38.89918082414483 L -135.70626709749934,-38.50513153145346 L -135.40331771479194,-38.13821799550393 L -135.0668627613838,-37.80176304209577 L -134.69994922543427,-37.49881365938839 L -134.30589993274288,-37.23211340390445 L -133.88828345472433,-37.004077554457176 L -133.450881790873,-36.81677123901139 L -132.99765611839013,-36.671890732564854 L -73.83800610185388,-20.820110286126106 L -73.35838824331422,-20.71652275714705 L -72.87092652249198,-20.66044480137843 L -72.38031546223239,-20.65241648018962 L -71.89127991524101,-20.692515110702395 L -71.4085295611694,-20.780354521184776 L -70.93671354982547,-20.915088770095917 L -70.4803757273193,-21.095420292965567 L -70.04391087634127,-21.31961239864925 L -69.63152239200227,-21.58550599461337 L -69.24718180084093,-21.89054038017656 L -68.89459051285209,-22.231777907457086 L -68.57714417488509,-22.60593227252784 L -68.29789996870838,-23.009400164319604 L -68.05954716867782,-23.43829596647644 L -67.86438124255464,-23.888489177965276 L -67.71428174489593,-24.35564419205884 L -52.29178930646578,-81.91316955162691 L -52.07425815838982,-82.59019224744084 L -51.84029441646002,-83.12988116980344 L -51.554558509058936,-83.64403888556802 L -51.21980222917388,-84.12771377486474 L -50.83924946277664,-84.57624778410595 L -50.416565141038824,-84.98532128558914 L -49.955819945041576,-85.35099467787265 L -49.46145110289127,-85.66974632629139 L -48.9382196567874,-85.93850647822363 L -48.391164611583235,-86.15468682648714 L -47.82555440641501,-86.31620543615183 L -47.246836176752026,-86.42150679471172 L -46.66058329550593,-86.46957679252019 L -46.07244169840156,-86.45995248922063 L -45.48807551052959,-86.392726572115 L -44.792991082977956,-86.24260272455619 L 13.611899362404872,-70.59305949568771 L 14.288922058218978,-70.37552834761168 L 14.828610980581475,-70.14156460568192 L 15.342768696346013,-69.85582869828087 L 15.82644358564282,-69.52107241839576 L 16.274977594883985,-69.14051965199856 L 16.68405109636719,-68.71783533026073 L 17.04972448865073,-68.25709013426344 L 17.368476137069386,-67.76272129211326 L 17.63723628900166,-67.23948984600935 L 17.853416637265177,-66.69243480080516 L 18.014935246929912,-66.1268245956368 L 18.120236605489776,-65.54810636597394 L 18.168306603298237,-64.96185348472787 L 18.15868229999868,-64.37371188762339 L 18.09145638289306,-63.78934569975145 L 17.941332535334272,-63.09426127219995 L 1.862501298457123,-3.087246169848735 L 1.7613586613115313,-2.6223009706080003 L 1.7048698568511966,-2.149846860332293 L 1.6935464564368194,-1.6741624566055933 L 1.7274910065360238,-1.1995556310496045 L 1.8063961000466673,-0.730324496571249 L 1.9295471602231622,-0.27071848298659695 L 2.095828911994138,0.17510014647357508 L 2.3037354820661875,0.6030939892641509 L 2.5513840363456097,1.0093870668683351 L 2.8365318311755265,1.3902999262593068 L 3.1565965239697276,1.7423829615966042 L 46.46446609406729,45.05025253169415 L 46.8280335791818,45.379770892575095 L 47.222148834902015,45.67206668727414 L 47.64301631587004,45.92432494750319 L 48.08658283817458,46.13411628831784 L 48.54857661372772,46.299420304422455 L 49.02454838991939,46.418645027777565 L 49.50991429835223,46.490642259122396 L 50.00000000000003,46.51471862576141 L 50.490085701647835,46.490642259122396 L 50.97545161008067,46.418645027777565 L 51.45142338627234,46.299420304422455 L 51.91341716182548,46.13411628831784 L 52.356983684130014,45.92432494750319 L 52.77785116509804,45.67206668727414 L 53.17196642081826,45.379770892575095 L 53.535533905932766,45.05025253169415 L 95.05025253169418,3.5355339059327004 L 95.37977089257514,3.171966420818191 L 95.67206668727417,2.777851165097975 L 95.92432494750322,2.356983684129952 L 96.13411628831788,1.9134171618254123 L 96.2994203044225,1.4514233862722754 L 96.4186450277776,0.9754516100806049 L 96.49064225912244,0.4900857016477665 L 96.51471862576145,-3.652633751016765e-14 L 96.49064225912244,-0.49008570164783954 L 96.4186450277776,-0.9754516100806778 L 96.29942030442248,-1.4514233862723476 L 96.13411628831788,-1.9134171618254852 L 95.92432494750322,-2.356983684130025 L 95.67206668727417,-2.7778511650980473 L 95.37977089257514,-3.1719664208182636 L 95.05025253169418,-3.5355339059327737 L 52.91521961055624,-45.67056682707071 L 52.43766633108071,-46.19746567532589 L 52.087263885138604,-46.66992868058279 L 51.78485819543521,-47.17446209304786 L 51.533361594074144,-47.70620698015307 L 51.33519613080857,-48.260042347954176 L 51.19227024737801,-48.830634459102 L 51.10596039817109,-49.41248819964903 L 51.07709779421746,-50.00000000000003 L 51.10596039817109,-50.587511800351024 L 51.19227024737801,-51.169365540898056 L 51.33519613080857,-51.73995765204587 L 51.53336159407415,-52.293793019847016 L 51.78485819543521,-52.82553790695219 L 52.08726388513859,-53.33007131941725 L 52.43766633108074,-53.802534324674205 L 52.91521961055622,-54.32943317292933 L 96.84340347603029,-98.2576170384034 L 97.1634681688245,-98.6097000737407 L 97.4486159636544,-98.99061293313166 L 97.69626451793383,-99.39690601073585 L 97.90417108800588,-99.82489985352643 L 98.07045283977685,-100.2707184829866 L 98.19360389995335,-100.73032449657126 L 98.27250899346399,-101.1995556310496 L 98.3064535435632,-101.6741624566056 L 98.29513014314882,-102.1498468603323 L 98.23864133868848,-102.62230097060801 L 98.1374987015429,-103.08724616984874 L 82.28571825510414,-162.24689618638502 L 82.13561875744543,-162.7140512004786 L 81.94045283132225,-163.16424441196742 L 81.70210003129169,-163.59314021412425 L 81.42285582511498,-163.996608105916 L 81.10540948714798,-164.37076247098676 L 80.75281819915915,-164.71199999826732 L 80.36847760799782,-165.0170343838305 L 79.9560891236588,-165.2829279797946 L 79.51962427268077,-165.5071200854783 L 79.0632864501746,-165.68745160834794 L 78.59147043883067,-165.8221858572591 L 78.10872008475906,-165.91002526774147 L 77.61968453776768,-165.95012389825425 L 77.12907347750809,-165.94209557706543 L 76.64161175668585,-165.88601762129682 L 76.16199389814619,-165.78243009231775 L 18.604468538578402,-150.35993765388767 L 17.90938411102669,-150.20981380632884 L 17.325017923154565,-150.1425878892232 L 16.73687632605036,-150.13296358592365 L 16.150623444803873,-150.18103358373213 L 15.571905215141427,-150.28633494229192 L 15.006295009972867,-150.44785355195674 L 14.459239964768743,-150.6640339002202 L 13.936008518664943,-150.93279405215245 L 13.441639676514564,-151.25154570057123 L 12.980894480517355,-151.6172190928547 L 12.558210158779518,-152.0262925943379 L 12.177657392382317,-152.47482660357906 L 11.84290111249724,-152.95850149287583 L 11.557165205096126,-153.47265920864047 L 11.32320146316637,-154.01234813100297 L 11.105670315090372,-154.689370826817 L -4.543872913778187,-213.09426127219993 L -4.6939967613369795,-213.78934569975144 L -4.761222678442606,-214.37371188762341 L -4.770846981742163,-214.9618534847279 L -4.722776983933697,-215.54810636597398 L -4.617475625373844,-216.1268245956368 L -4.4559570157091155,-216.69243480080513 L -4.239776667445594,-217.23948984600932 L -3.9710165155132886,-217.7627212921133 L -3.6522648670946483,-218.25709013426345 L -3.28659147481108,-218.71783533026078 L -2.8775179733279335,-219.14051965199857 L -2.428983964086841,-219.5210724183957 L -1.9453090747900166,-219.85582869828082 L -1.4311513590252087,-220.14156460568202 L -0.8914624366628096,-220.37552834761175 L -0.21443974084881673,-220.59305949568773 L 59.79257536150237,-236.67189073256495 L 60.245801033985266,-236.81677123901147 L 60.68320269783657,-237.00407755445727 L 61.100819175855136,-237.23211340390455 L 61.49486846854651,-237.49881365938847 L 61.861782004496035,-237.80176304209587 L 62.19823695790419,-238.13821799550402 L 62.501186340611575,-238.50513153145354 L 62.76788659609551,-238.89918082414493 L 62.99592244554279,-239.31679730216348 L 63.18322876098858,-239.7541989660148 L 63.32810926743511,-240.20742463849768 L 79.17988971387385,-299.36707465503395 L 79.2834772428529,-299.8466925135736 L 79.33955519862153,-300.33415423439584 L 79.34758351981033,-300.82476529465544 L 79.30748488929756,-301.3138008416468 L 79.21964547881517,-301.7965511957184 L 79.08491122990404,-302.26836720706234 L 78.90457970703437,-302.7247050295685 L 78.68038760135069,-303.16116988054654 L 78.41449400538657,-303.57355836488557 L 78.10945961982338,-303.9578989560469 L 77.76822209254286,-304.31049024403575 L 77.3940677274721,-304.6279365820027 L 76.99059983568034,-304.90718078817946 L 76.56170403352351,-305.14553358820996 L 76.11151082203467,-305.34069951433315 L 75.64435580794111,-305.4907990119919 L 18.934195534188003,-320.6862406599836 L 18.454577675648338,-320.78982818896264 L 17.96711595482611,-320.84590614473126 L 17.476504894566514,-320.8539344659201 L 16.987469347575136,-320.8138358354073 L 16.504718993503527,-320.7259964249249 L 16.032902982159584,-320.59126217601374 L 15.57656515965342,-320.4109306531441 L 15.140100308675391,-320.18673854746044 L 14.727711824336383,-319.9208449514963 L 14.343371233175048,-319.6158105659331 L 13.990779945186215,-319.2745730386526 L 13.673333607219218,-318.90041867358184 L 13.3940894010425,-318.4969507817901 L 13.155736601011954,-318.06805497963325 L 12.960570674888768,-317.6178617681444 L 12.810471177230058,-317.1507067540508 L -2.6120212612000193,-259.59318139448277 L -2.8295524092759856,-258.9161586986688 L -3.063516151205753,-258.3764697763063 L -3.3492520586069405,-257.8623120605415 L -3.684008338491741,-257.37863717124515 L -4.064561104889399,-256.93010316200343 L -4.4872454266270125,-256.52102966052047 L -4.947990622624061,-256.1553562682371 L -5.442359464774556,-255.83660461981825 L -5.965590910878372,-255.567844467886 L -6.512645956082506,-255.35166411962254 L -7.078256161251056,-255.19014550995774 L -7.656974390913508,-255.08484415139793 L -8.243227272159988,-255.03677415358945 L -8.831368869264196,-255.046398456889 L -9.415735057136311,-255.11362437399464 L -10.110819484688054,-255.2637482215535 L -70.56054551037948,-271.4612034928201 L -71.2174015637123,-271.67117755970827 L -71.74178757081948,-271.89573274314705 L -72.24245379024487,-272.16911718232893 L -72.71486611117314,-272.48885506543695 L -73.15474629447276,-272.85205079669 L -73.55811071708557,-273.2554152193028 L -73.92130644833834,-273.6952954026021 L -74.24104433144659,-274.1677077235308 L -74.51442877062834,-274.6683739429559 L -74.7389839540673,-275.19275995006336 L -74.94895802095537,-275.8496160033961 L -90.91936250178361,-335.4519769432727 L -91.06946199944232,-335.9191319573663 L -91.2646279255655,-336.36932516885514 L -91.50298072559605,-336.798220971012 L -91.78222493177277,-337.20168886280373 L -92.09967126973977,-337.5758432278745 L -92.4522625577286,-337.917080755155 L -92.83660314888994,-338.2221151407182 L -93.24899163322895,-338.48800873668233 L -93.68545648420698,-338.712200842366 L -94.14179430671314,-338.89253236523564 L -94.61361031805708,-339.0272666141468 L -95.0963606721287,-339.1151060246292 L -95.58539621912007,-339.155204655142 L -96.07600727937967,-339.14717633395315 L -96.56346900020189,-339.09109837818454 L -97.04308685874156,-338.9875108492055 L -153.75324713249466,-323.79206920121374 L -154.2204021465882,-323.641969703555 L -154.67059535807707,-323.4468037774318 L -155.0994911602339,-323.20845097740124 L -155.50295905202566,-322.92920677122453 L -155.8771134170964,-322.61176043325753 L -156.21835094437694,-322.25916914526874 L -156.5233853299401,-321.8748285541074 L -156.78927892590423,-321.4624400697684 L -157.01347103158793,-321.02597521879034 L -157.19380255445756,-320.5696373962842 L -157.3285368033687,-320.09782138494023 L -157.4163762138511,-319.61507103086865 L -157.45647484436387,-319.1260354838773 L -157.44844652317505,-318.6354244236177 L -157.39236856740644,-318.14796270279544 L -157.28878103842737,-317.6683448442558 L -141.86628859999738,-260.11081948468825 L -141.7161647524385,-259.41573505713626 L -141.64893883533284,-258.8313688692642 L -141.6393145320333,-258.24322727215997 L -141.68738452984178,-257.6569743909135 L -141.79268588840156,-257.07825616125115 L -141.9542044980664,-256.51264595608257 L -142.17038484632994,-255.96559091087826 L -142.43914499826212,-255.4423594647745 L -142.75789664668088,-254.9479906226242 L -143.12357003896443,-254.48724542662686 L -143.53264354044737,-254.06456110488932 L -143.98117754968888,-253.68400833849182 L -144.46485243898525,-253.34925205860702 L -144.97901015475026,-253.0635161512057 L -145.5186990771127,-252.82955240927598 L -146.19572177292673,-252.61202126119997 L -206.64544779861825,-236.4145659899333 L -207.3192888608776,-236.26798083932803 L -207.88569805614182,-236.20025832918384 L -208.45597994057135,-236.18668308880203 L -209.02496995311034,-236.2273780576617 L -209.58751523209523,-236.321974695823 L -210.13852128036746,-236.4696163214822 L -210.67299810182823,-236.66896586921442 L -211.18610539161648,-236.91821799864525 L -211.67319637065967,-237.21511544389315 L -212.1298598676231,-237.55696945571793 L -212.64013077035028,-238.02083645108942 L -256.2720872293989,-281.652792910138 L -256.6356547145134,-281.98231127101894 L -257.02976997023364,-282.27460706571793 L -257.45063745120166,-282.526865325947 L -257.8942039735062,-282.73665666676163 L -258.35619774905933,-282.9019606828663 L -258.832169525251,-283.0211854062214 L -259.3175354336838,-283.0931826375662 L -259.80762113533166,-283.1172590042052 L -260.29770683697944,-283.0931826375662 L -260.78307274541226,-283.0211854062214 L -261.2590445216039,-282.9019606828662 L -261.72103829715707,-282.73665666676163 L -262.1646048194616,-282.52686532594697 L -262.58547230042967,-282.27460706571793 L -262.97958755614985,-281.9823112710189 L -263.34315504126437,-281.6527929101379 L -304.85787366702573,-240.1380742843766 L -305.18739202790664,-239.77450679926207 L -305.4796878226057,-239.38039154354183 L -305.7319460828347,-238.95952406257382 L -305.9417374236494,-238.51595754026928 L -306.107041439754,-238.05396376471614 L -306.22626616310913,-237.57799198852447 L -306.29826339445395,-237.09262608009166 L -306.32233976109296,-236.60254037844385 L -306.29826339445395,-236.11245467679603 L -306.22626616310913,-235.62708876836322 L -306.107041439754,-235.15111699217155 L -305.9417374236494,-234.6891232166184 L -305.7319460828347,-234.24555669431388 L -305.4796878226057,-233.82468921334583 L -305.18739202790664,-233.43057395762563 L -304.85787366702573,-233.0670064725111 L -262.7228407458882,-190.93197355137366 L -262.24528746641226,-190.405074703118 L -261.8948850204702,-189.93261169786115 L -261.5924793307667,-189.4280782853959 L -261.34098272940577,-188.896333398291 L -261.1428172661401,-188.34249803048962 L -260.9998913827095,-187.7719059193417 L -260.9135815335026,-187.19005217879487 L -260.88471892954897,-186.60254037844385 L -260.9135815335026,-186.01502857809282 L -260.9998913827095,-185.433174837546 L -261.1428172661401,-184.86258272639807 L -261.34098272940577,-184.3087473585967 L -261.5924793307667,-183.77700247149178 L -261.8948850204702,-183.27246905902655 L -262.24528746641226,-182.8000060537697 L -262.7228407458882,-182.27310720551404 L -306.65102461136183,-138.34492334004045 L -306.97108930415607,-137.99284030470318 z M 19.885285221402256,-250.82539289725258 L 31.075129151219812,-292.586458972098 L 51.08010802598831,-287.22614103800214 L 42.98504509836296,-257.01495490163705 L 19.885285221402256,-250.82539289725258 z M 72.11612320873975,-107.47146226806714 L 41.693375775434994,-77.04871483476238 L 41.07286581225127,-78.61894593433182 L 39.95190528383284,-80.80127018922195 L 38.62243730401226,-82.863212610917 L 37.097265376196304,-84.78491556672367 L 35.39107773979366,-86.54787200666783 L 33.52030591443989,-88.13510369650282 L 31.50296645548107,-89.53132472738642 L 29.3584874446969,-90.72308872753915 L 27.10752138725271,-91.69891835815508 L 24.771746316784892,-92.44941584644866 L -43.52952387243703,-110.75068603567055 L -45.927613165135334,-111.26862368056581 L -48.36492176924648,-111.54901345940893 L -50.81797707054446,-111.58915506535297 L -53.263154805501344,-111.38866191278909 L -55.676906575859384,-110.94946486037718 L -58.035986632579096,-110.27579361582147 L -60.317675745109916,-109.37413600147323 L -62.50000000000004,-108.2531754730548 L -64.56194242169511,-106.92370749323422 L -66.48364537750177,-105.39853556541826 L -68.24660181744594,-103.69234792901561 L -69.83383350728093,-101.82157610366184 L -71.23005453816452,-99.80423664470302 L -72.42181853831725,-97.65975763391887 L -73.39764816893319,-95.40879157647466 L -74.14814565722675,-93.07301650600685 L -85.97893971888567,-48.919891974011634 L -116.19012585525076,-57.01495490163699 L -130.75566491043915,-111.3742866952288 L -131.50616239873273,-113.71006176569662 L -132.48199202934865,-115.96102782314081 L -133.6737560295014,-118.10550683392498 L -135.06997706038499,-120.12284629288379 L -136.65720875021998,-121.99361811823756 L -138.42016519016414,-123.69980575464021 L -140.3418681459708,-125.22497768245616 L -142.40381056766586,-126.55444566227675 L -144.586134822556,-127.67540619069517 L -146.86782393508682,-128.57706380504342 L -149.22690399180652,-129.25073504959911 L -151.64065576216456,-129.68993210201103 L -154.08583349712146,-129.89042525457492 L -156.53888879841944,-129.85028364863086 L -158.97619740253057,-129.56989386978773 L -161.37428669522888,-129.05195622489248 L -229.67555688445077,-110.75068603567055 L -273.828681416446,-98.91989197401165 L -281.92374434407134,-129.13107811037673 L -242.1299516056679,-168.92487084878016 L -240.4823598012632,-170.7427082743527 L -239.02088082776797,-172.71328455295378 L -237.75958952662273,-174.8176219577939 L -236.71063282254943,-177.0354545693166 L -235.8841127420264,-179.34542344708228 L -235.28798912525085,-181.72528232804063 L -234.92800296852667,-184.15211187020483 L -234.8076211353316,-186.60254037844385 L -234.92800296852667,-189.05296888668286 L -235.28798912525085,-191.47979842884706 L -235.8841127420264,-193.8596573098054 L -236.71063282254943,-196.16962618757108 L -237.75958952662273,-198.3874587990938 L -239.02088082776797,-200.49179620393392 L -240.48235980126316,-202.462372482535 L -242.1299516056679,-204.28020990810754 L -274.4522820760042,-236.60254037844385 L -259.8076211353316,-251.24720131911647 L -227.4852906649953,-218.92487084878016 L -225.7248754883088,-217.32454738480916 L -223.82031119135394,-215.89880841065957 L -221.78884580333303,-214.66056563926247 L -219.64887658938014,-213.6210327889022 L -217.41978344207928,-212.78962403004732 L -215.12175337415601,-212.17386872916487 L -212.77559770176424,-211.77934326161164 L -210.40256357398428,-211.60962051111562 L -208.02414155535078,-211.66623751318753 L -205.66187100397224,-211.9486815354892 L -203.33714500776858,-212.45439472121714 L -135.03587481854666,-230.75566491043907 L -132.70009974807886,-231.5061623987326 L -130.44913369063465,-232.48199202934856 L -128.30465467985047,-233.6737560295013 L -126.28731522089167,-235.0699770603849 L -124.4165433955379,-236.65720875021987 L -122.71035575913525,-238.42016519016403 L -121.1851838313193,-240.3418681459707 L -119.85571585149872,-242.40381056766574 L -118.7347553230803,-244.5861348225559 L -117.83309770873204,-246.8678239350867 L -117.15942646417633,-249.2269039918064 L -116.72022941176442,-251.64065576216447 L -116.51973625920054,-254.08583349712134 L -116.55987786514459,-256.53888879841935 L -116.8402676439877,-258.9761974025305 L -117.35820528888297,-261.37428669522876 L -129.18899935054188,-305.527411227224 L -109.18402047577334,-310.8877291613199 L -97.35322641411443,-266.7346046293247 L -96.62882388188177,-264.4684762669102 L -95.6922923046528,-262.2814679476537 L -94.55211305741642,-260.1933855575609 L -93.21861177999673,-258.223139094104 L -91.70386486645981,-256.38857141435636 L -90.02159009941903,-254.70629664731558 L -88.1870224196714,-253.1915497337787 L -86.21677595621452,-251.85804845635897 L -84.1286935661217,-250.71786920912263 L -81.94168524686516,-249.78133763189365 L -79.67555688445073,-249.056935099661 L -24.175372642008575,-234.18570555212014 L -25.224977682456185,-232.863212610917 L -26.55444566227677,-230.80127018922195 L -27.675406190695202,-228.6189459343318 L -28.577063805043444,-226.337256821801 L -29.250735049599143,-223.9781767650813 L -29.689932102011063,-221.56442499472323 L -29.890425254574943,-219.11924725976635 L -29.85028364863089,-216.66619195846837 L -29.569893869787776,-214.22888335435724 L -29.051956224892507,-211.83079406165893 L -10.750686035670572,-143.529523872437 L -10.000188547377011,-141.1937488019692 L -9.024358916761074,-138.942782744525 L -7.832594916608343,-136.79830373374082 L -6.436373885724748,-134.780964274782 L -4.849142195889758,-132.91019244942825 L -3.0861857559455856,-131.2040048130256 L -1.1644828001389165,-129.67883288520966 L 0.8974596215561306,-128.34936490538905 L 3.079783876446264,-127.22840437697063 L 5.361472988977095,-126.32674676262238 L 7.720553045696806,-125.65307551806669 L 10.13430481605485,-125.21387846565477 L 12.579482551011733,-125.01338531309088 L 15.032537852309716,-125.05352691903494 L 17.469846456420854,-125.33391669787805 L 19.86793574911916,-125.85185434277332 L 64.02106028111439,-137.68264840443226 L 72.11612320873975,-107.47146226806714 z M 50.00000000000003,14.6446609406726 L 27.883876791260263,-7.471462268067151 L 34.07343879564474,-30.571222145027924 L 64.64466094067264,-2.510489593987586e-14 L 50.00000000000003,14.6446609406726 z" /></g></svg>